<svg width="26" height="26" viewBox="0 0 26 26" fill="none" xmlns="http://www.w3.org/2000/svg">
<path d="M13.0001 21.6667C15.2986 21.6667 17.503 20.7537 19.1283 19.1283C20.7537 17.503 21.6667 15.2986 21.6667 13.0001C21.6667 10.7015 20.7537 8.49714 19.1283 6.87182C17.503 5.24651 15.2986 4.33341 13.0001 4.33341C10.7015 4.33341 8.49714 5.24651 6.87182 6.87182C5.24651 8.49714 4.33341 10.7015 4.33341 13.0001C4.33341 15.2986 5.24651 17.503 6.87182 19.1283C8.49714 20.7537 10.7015 21.6667 13.0001 21.6667ZM13.0001 2.16675C14.4227 2.16675 15.8315 2.44696 17.1458 2.99139C18.4602 3.53581 19.6544 4.33379 20.6604 5.33976C21.6664 6.34573 22.4644 7.53998 23.0088 8.85434C23.5532 10.1687 23.8334 11.5774 23.8334 13.0001C23.8334 15.8733 22.692 18.6288 20.6604 20.6604C18.6288 22.692 15.8733 23.8334 13.0001 23.8334C7.00925 23.8334 2.16675 18.9584 2.16675 13.0001C2.16675 10.1269 3.30811 7.3714 5.33976 5.33976C7.3714 3.30811 10.1269 2.16675 13.0001 2.16675ZM13.5417 7.58342V13.2709L18.4167 16.1634L17.6042 17.4959L11.9167 14.0834V7.58342H13.5417Z" fill="#FBBF24"/>
</svg>
