<svg width="190" height="190" viewBox="0 0 190 190" fill="none" xmlns="http://www.w3.org/2000/svg">
<circle cx="95" cy="95" r="95" fill="#E0E7FF"/>
<path d="M57.5 86.6667C57.5 70.9542 57.5 63.0958 62.3833 58.2167C67.2625 53.3333 75.1208 53.3333 90.8333 53.3333H99.1667C114.879 53.3333 122.737 53.3333 127.617 58.2167C132.5 63.0958 132.5 70.9542 132.5 86.6667V103.333C132.5 119.046 132.5 126.904 127.617 131.783C122.737 136.667 114.879 136.667 99.1667 136.667H90.8333C75.1208 136.667 67.2625 136.667 62.3833 131.783C57.5 126.904 57.5 119.046 57.5 103.333V86.6667Z" stroke="#423BCA" stroke-width="8"/>
<path d="M78.3333 86.6667H111.667M78.3333 103.333H99.1667" stroke="#423BCA" stroke-width="8" stroke-linecap="round"/>
</svg>
