<svg width="190" height="190" viewBox="0 0 190 190" fill="none" xmlns="http://www.w3.org/2000/svg">
<circle cx="95" cy="95" r="95" fill="#E0E7FF"/>
<path d="M90.8333 115.833H99.1666V90.8333H90.8333V115.833ZM95 82.5C96.1805 82.5 97.1708 82.1 97.9708 81.3C98.7708 80.5 99.1694 79.5111 99.1666 78.3333C99.1666 77.1528 98.7667 76.1625 97.9666 75.3625C97.1666 74.5625 96.1778 74.1639 95 74.1667C93.8194 74.1667 92.8291 74.5667 92.0291 75.3667C91.2291 76.1667 90.8305 77.1556 90.8333 78.3333C90.8333 79.5139 91.2333 80.5042 92.0333 81.3042C92.8333 82.1042 93.8222 82.5028 95 82.5ZM95 136.667C89.2361 136.667 83.8194 135.572 78.75 133.383C73.6805 131.194 69.2708 128.226 65.5208 124.479C61.7708 120.729 58.8028 116.319 56.6166 111.25C54.4305 106.181 53.3361 100.764 53.3333 95C53.3333 89.2361 54.4278 83.8195 56.6166 78.75C58.8055 73.6806 61.7736 69.2708 65.5208 65.5208C69.2708 61.7708 73.6805 58.8028 78.75 56.6167C83.8194 54.4306 89.2361 53.3361 95 53.3333C100.764 53.3333 106.181 54.4278 111.25 56.6167C116.319 58.8056 120.729 61.7736 124.479 65.5208C128.229 69.2708 131.199 73.6806 133.387 78.75C135.576 83.8195 136.669 89.2361 136.667 95C136.667 100.764 135.572 106.181 133.383 111.25C131.194 116.319 128.226 120.729 124.479 124.479C120.729 128.229 116.319 131.199 111.25 133.388C106.181 135.576 100.764 136.669 95 136.667ZM95 128.333C104.306 128.333 112.187 125.104 118.646 118.646C125.104 112.188 128.333 104.306 128.333 95C128.333 85.6945 125.104 77.8125 118.646 71.3542C112.187 64.8958 104.306 61.6667 95 61.6667C85.6944 61.6667 77.8125 64.8958 71.3541 71.3542C64.8958 77.8125 61.6666 85.6945 61.6666 95C61.6666 104.306 64.8958 112.188 71.3541 118.646C77.8125 125.104 85.6944 128.333 95 128.333Z" fill="#423BCA"/>
</svg>
