<svg width="7868" height="572" viewBox="0 0 7868 572" fill="none" xmlns="http://www.w3.org/2000/svg">
<mask id="path-1-outside-1_101_6" maskUnits="userSpaceOnUse" x="0" y="0" width="7868" height="572" fill="black">
<rect fill="white" width="7868" height="572"/>
<path d="M293.395 542C238.462 542 191.276 531.436 151.838 510.308C112.399 489.18 82.1155 459.366 60.9876 420.867C40.3292 382.367 30 337.294 30 285.648C30 234.002 40.3292 189.164 60.9876 151.133C82.1155 112.634 112.399 82.8198 151.838 61.6919C191.276 40.564 238.462 30 293.395 30C326.26 30 357.952 35.1646 388.47 45.4938C418.989 55.3535 443.638 68.4998 462.418 84.9326L423.684 187.051C403.025 172.027 382.367 160.993 361.708 153.95C341.05 146.438 319.922 142.682 298.325 142.682C254.66 142.682 221.795 155.124 199.728 180.008C177.661 204.423 166.627 239.636 166.627 285.648C166.627 332.129 177.661 367.812 199.728 392.696C221.795 417.11 254.66 429.318 298.325 429.318C319.922 429.318 341.05 425.796 361.708 418.754C382.367 411.242 403.025 399.973 423.684 384.949L462.418 487.067C443.638 503.5 418.989 516.881 388.47 527.21C357.952 537.07 326.26 542 293.395 542Z"/>
<path d="M748.426 542C698.189 542 654.055 531.436 616.025 510.308C578.464 488.711 549.12 458.662 527.992 420.162C506.864 381.663 496.3 336.824 496.3 285.648C496.3 234.002 506.629 189.164 527.287 151.133C548.415 112.634 577.994 82.8198 616.025 61.6919C654.055 40.564 698.189 30 748.426 30C798.664 30 842.563 40.564 880.124 61.6919C918.154 82.8198 947.733 112.634 968.861 151.133C989.989 189.164 1000.55 234.002 1000.55 285.648C1000.55 336.824 989.989 381.663 968.861 420.162C947.733 458.662 918.154 488.711 880.124 510.308C842.563 531.436 798.664 542 748.426 542ZM748.426 433.543C785.048 433.543 813.688 420.632 834.347 394.809C855.475 368.516 866.039 332.129 866.039 285.648C866.039 239.166 855.709 203.014 835.051 177.191C814.392 151.368 785.518 138.457 748.426 138.457C711.335 138.457 682.46 151.368 661.802 177.191C641.143 203.014 630.814 239.166 630.814 285.648C630.814 332.129 641.143 368.516 661.802 394.809C682.46 420.632 711.335 433.543 748.426 433.543Z"/>
<path d="M1327.78 542C1272.85 542 1225.66 531.436 1186.23 510.308C1146.79 489.18 1116.5 459.366 1095.38 420.867C1074.72 382.367 1064.39 337.294 1064.39 285.648C1064.39 234.002 1074.72 189.164 1095.38 151.133C1116.5 112.634 1146.79 82.8198 1186.23 61.6919C1225.66 40.564 1272.85 30 1327.78 30C1360.65 30 1392.34 35.1646 1422.86 45.4938C1453.38 55.3535 1478.03 68.4998 1496.81 84.9326L1458.07 187.051C1437.41 172.027 1416.75 160.993 1396.1 153.95C1375.44 146.438 1354.31 142.682 1332.71 142.682C1289.05 142.682 1256.18 155.124 1234.12 180.008C1212.05 204.423 1201.02 239.636 1201.02 285.648C1201.02 332.129 1212.05 367.812 1234.12 392.696C1256.18 417.11 1289.05 429.318 1332.71 429.318C1354.31 429.318 1375.44 425.796 1396.1 418.754C1416.75 411.242 1437.41 399.973 1458.07 384.949L1496.81 487.067C1478.03 503.5 1453.38 516.881 1422.86 527.21C1392.34 537.07 1360.65 542 1327.78 542Z"/>
<path d="M1782.81 542C1732.58 542 1688.44 531.436 1650.41 510.308C1612.85 488.711 1583.51 458.662 1562.38 420.162C1541.25 381.663 1530.69 336.824 1530.69 285.648C1530.69 234.002 1541.02 189.164 1561.68 151.133C1582.8 112.634 1612.38 82.8198 1650.41 61.6919C1688.44 40.564 1732.58 30 1782.81 30C1833.05 30 1876.95 40.564 1914.51 61.6919C1952.54 82.8198 1982.12 112.634 2003.25 151.133C2024.38 189.164 2034.94 234.002 2034.94 285.648C2034.94 336.824 2024.38 381.663 2003.25 420.162C1982.12 458.662 1952.54 488.711 1914.51 510.308C1876.95 531.436 1833.05 542 1782.81 542ZM1782.81 433.543C1819.44 433.543 1848.08 420.632 1868.73 394.809C1889.86 368.516 1900.43 332.129 1900.43 285.648C1900.43 239.166 1890.1 203.014 1869.44 177.191C1848.78 151.368 1819.91 138.457 1782.81 138.457C1745.72 138.457 1716.85 151.368 1696.19 177.191C1675.53 203.014 1665.2 239.166 1665.2 285.648C1665.2 332.129 1675.53 368.516 1696.19 394.809C1716.85 420.632 1745.72 433.543 1782.81 433.543Z"/>
<path d="M2112.86 534.253V37.7469H2220.61L2379.07 322.27L2537.53 37.7469H2642.47V534.253H2525.56V264.52L2412.17 461.01H2341.75L2229.77 267.337V534.253H2112.86Z"/>
<path d="M2973.32 542C2923.09 542 2878.95 531.436 2840.92 510.308C2803.36 488.711 2774.02 458.662 2752.89 420.162C2731.76 381.663 2721.2 336.824 2721.2 285.648C2721.2 234.002 2731.53 189.164 2752.18 151.133C2773.31 112.634 2802.89 82.8198 2840.92 61.6919C2878.95 40.564 2923.09 30 2973.32 30C3023.56 30 3067.46 40.564 3105.02 61.6919C3143.05 82.8198 3172.63 112.634 3193.76 151.133C3214.89 189.164 3225.45 234.002 3225.45 285.648C3225.45 336.824 3214.89 381.663 3193.76 420.162C3172.63 458.662 3143.05 488.711 3105.02 510.308C3067.46 531.436 3023.56 542 2973.32 542ZM2973.32 433.543C3009.94 433.543 3038.58 420.632 3059.24 394.809C3080.37 368.516 3090.94 332.129 3090.94 285.648C3090.94 239.166 3080.61 203.014 3059.95 177.191C3039.29 151.368 3010.41 138.457 2973.32 138.457C2936.23 138.457 2907.36 151.368 2886.7 177.191C2866.04 203.014 2855.71 239.166 2855.71 285.648C2855.71 332.129 2866.04 368.516 2886.7 394.809C2907.36 420.632 2936.23 433.543 2973.32 433.543Z"/>
<path d="M3503.47 534.253V37.7469H3854.2V137.752H3627.42V232.124H3838V332.129H3627.42V434.248H3854.2V534.253H3503.47Z"/>
<path d="M4113.71 542C4074.74 542 4037.42 537.305 4001.74 527.915C3966.05 518.055 3936.71 505.143 3913.7 489.18L3949.62 388.47C3971.22 403.025 3996.57 414.528 4025.68 422.979C4054.79 431.431 4084.13 435.656 4113.71 435.656C4144.7 435.656 4166.3 431.665 4178.51 423.684C4191.18 415.232 4197.52 404.903 4197.52 392.696C4197.52 381.897 4193.06 373.211 4184.14 366.638C4175.69 360.065 4160.43 354.431 4138.36 349.736L4055.96 332.129C3966.76 312.879 3922.15 266.163 3922.15 191.981C3922.15 159.585 3930.84 131.179 3948.21 106.765C3966.05 82.3503 3990.7 63.5699 4022.16 50.4236C4053.62 36.8079 4090.24 30 4132.02 30C4166.3 30 4198.69 34.9298 4229.21 44.7895C4260.2 54.1797 4285.32 67.0912 4304.57 83.524L4268.65 177.895C4250.81 164.749 4230.15 154.655 4206.68 147.612C4183.2 140.1 4157.85 136.344 4130.62 136.344C4104.32 136.344 4084.13 141.039 4070.05 150.429C4055.96 159.35 4048.92 171.088 4048.92 185.642C4048.92 195.972 4053.15 204.423 4061.6 210.996C4070.05 217.569 4085.07 223.203 4106.67 227.898L4188.37 245.505C4278.98 264.755 4324.29 310.297 4324.29 382.132C4324.29 414.528 4315.6 442.699 4298.23 466.644C4280.86 490.589 4256.44 509.134 4224.99 522.281C4193.53 535.427 4156.44 542 4113.71 542Z"/>
<path d="M4494.52 534.253V143.387H4336.77V37.7469H4781.86V143.387H4624.11V534.253H4494.52Z"/>
<path d="M4830.85 534.253V37.7469H4960.43V534.253H4830.85Z"/>
<path d="M5051.65 534.253V37.7469H5159.4L5317.86 322.27L5476.32 37.7469H5581.26V534.253H5464.35V264.52L5350.96 461.01H5280.54L5168.56 267.337V534.253H5051.65Z"/>
<path d="M5612.8 534.253L5845.21 37.7469H5947.33L6179.73 534.253H6050.15L6007.19 433.543H5785.34L5742.39 534.253H5612.8ZM5895.21 172.966L5827.6 334.242H5964.23L5896.62 172.966H5895.21Z"/>
<path d="M6271 534.253V143.387H6113.25V37.7469H6558.34V143.387H6400.59V534.253H6271Z"/>
<path d="M6607.33 534.253V37.7469H6736.91V534.253H6607.33Z"/>
<path d="M7066.17 542C7015.93 542 6971.8 531.436 6933.77 510.308C6896.21 488.711 6866.86 458.662 6845.74 420.162C6824.61 381.663 6814.04 336.824 6814.04 285.648C6814.04 234.002 6824.37 189.164 6845.03 151.133C6866.16 112.634 6895.74 82.8198 6933.77 61.6919C6971.8 40.564 7015.93 30 7066.17 30C7116.41 30 7160.31 40.564 7197.87 61.6919C7235.9 82.8198 7265.48 112.634 7286.6 151.133C7307.73 189.164 7318.3 234.002 7318.3 285.648C7318.3 336.824 7307.73 381.663 7286.6 420.162C7265.48 458.662 7235.9 488.711 7197.87 510.308C7160.31 531.436 7116.41 542 7066.17 542ZM7066.17 433.543C7102.79 433.543 7131.43 420.632 7152.09 394.809C7173.22 368.516 7183.78 332.129 7183.78 285.648C7183.78 239.166 7173.45 203.014 7152.8 177.191C7132.14 151.368 7103.26 138.457 7066.17 138.457C7029.08 138.457 7000.2 151.368 6979.55 177.191C6958.89 203.014 6948.56 239.166 6948.56 285.648C6948.56 332.129 6958.89 368.516 6979.55 394.809C7000.2 420.632 7029.08 433.543 7066.17 433.543Z"/>
<path d="M7394.81 534.253V37.7469H7489.88L7718.06 322.27V37.7469H7837.79V534.253H7743.42L7515.24 249.73V534.253H7394.81Z"/>
</mask>
<path d="M293.395 542C238.462 542 191.276 531.436 151.838 510.308C112.399 489.18 82.1155 459.366 60.9876 420.867C40.3292 382.367 30 337.294 30 285.648C30 234.002 40.3292 189.164 60.9876 151.133C82.1155 112.634 112.399 82.8198 151.838 61.6919C191.276 40.564 238.462 30 293.395 30C326.26 30 357.952 35.1646 388.47 45.4938C418.989 55.3535 443.638 68.4998 462.418 84.9326L423.684 187.051C403.025 172.027 382.367 160.993 361.708 153.95C341.05 146.438 319.922 142.682 298.325 142.682C254.66 142.682 221.795 155.124 199.728 180.008C177.661 204.423 166.627 239.636 166.627 285.648C166.627 332.129 177.661 367.812 199.728 392.696C221.795 417.11 254.66 429.318 298.325 429.318C319.922 429.318 341.05 425.796 361.708 418.754C382.367 411.242 403.025 399.973 423.684 384.949L462.418 487.067C443.638 503.5 418.989 516.881 388.47 527.21C357.952 537.07 326.26 542 293.395 542Z" stroke="black" stroke-width="60" mask="url(#path-1-outside-1_101_6)"/>
<path d="M748.426 542C698.189 542 654.055 531.436 616.025 510.308C578.464 488.711 549.12 458.662 527.992 420.162C506.864 381.663 496.3 336.824 496.3 285.648C496.3 234.002 506.629 189.164 527.287 151.133C548.415 112.634 577.994 82.8198 616.025 61.6919C654.055 40.564 698.189 30 748.426 30C798.664 30 842.563 40.564 880.124 61.6919C918.154 82.8198 947.733 112.634 968.861 151.133C989.989 189.164 1000.55 234.002 1000.55 285.648C1000.55 336.824 989.989 381.663 968.861 420.162C947.733 458.662 918.154 488.711 880.124 510.308C842.563 531.436 798.664 542 748.426 542ZM748.426 433.543C785.048 433.543 813.688 420.632 834.347 394.809C855.475 368.516 866.039 332.129 866.039 285.648C866.039 239.166 855.709 203.014 835.051 177.191C814.392 151.368 785.518 138.457 748.426 138.457C711.335 138.457 682.46 151.368 661.802 177.191C641.143 203.014 630.814 239.166 630.814 285.648C630.814 332.129 641.143 368.516 661.802 394.809C682.46 420.632 711.335 433.543 748.426 433.543Z" stroke="black" stroke-width="60" mask="url(#path-1-outside-1_101_6)"/>
<path d="M1327.78 542C1272.85 542 1225.66 531.436 1186.23 510.308C1146.79 489.18 1116.5 459.366 1095.38 420.867C1074.72 382.367 1064.39 337.294 1064.39 285.648C1064.39 234.002 1074.72 189.164 1095.38 151.133C1116.5 112.634 1146.79 82.8198 1186.23 61.6919C1225.66 40.564 1272.85 30 1327.78 30C1360.65 30 1392.34 35.1646 1422.86 45.4938C1453.38 55.3535 1478.03 68.4998 1496.81 84.9326L1458.07 187.051C1437.41 172.027 1416.75 160.993 1396.1 153.95C1375.44 146.438 1354.31 142.682 1332.71 142.682C1289.05 142.682 1256.18 155.124 1234.12 180.008C1212.05 204.423 1201.02 239.636 1201.02 285.648C1201.02 332.129 1212.05 367.812 1234.12 392.696C1256.18 417.11 1289.05 429.318 1332.71 429.318C1354.31 429.318 1375.44 425.796 1396.1 418.754C1416.75 411.242 1437.41 399.973 1458.07 384.949L1496.81 487.067C1478.03 503.5 1453.38 516.881 1422.86 527.21C1392.34 537.07 1360.65 542 1327.78 542Z" stroke="black" stroke-width="60" mask="url(#path-1-outside-1_101_6)"/>
<path d="M1782.81 542C1732.58 542 1688.44 531.436 1650.41 510.308C1612.85 488.711 1583.51 458.662 1562.38 420.162C1541.25 381.663 1530.69 336.824 1530.69 285.648C1530.69 234.002 1541.02 189.164 1561.68 151.133C1582.8 112.634 1612.38 82.8198 1650.41 61.6919C1688.44 40.564 1732.58 30 1782.81 30C1833.05 30 1876.95 40.564 1914.51 61.6919C1952.54 82.8198 1982.12 112.634 2003.25 151.133C2024.38 189.164 2034.94 234.002 2034.94 285.648C2034.94 336.824 2024.38 381.663 2003.25 420.162C1982.12 458.662 1952.54 488.711 1914.51 510.308C1876.95 531.436 1833.05 542 1782.81 542ZM1782.81 433.543C1819.44 433.543 1848.08 420.632 1868.73 394.809C1889.86 368.516 1900.43 332.129 1900.43 285.648C1900.43 239.166 1890.1 203.014 1869.44 177.191C1848.78 151.368 1819.91 138.457 1782.81 138.457C1745.72 138.457 1716.85 151.368 1696.19 177.191C1675.53 203.014 1665.2 239.166 1665.2 285.648C1665.2 332.129 1675.53 368.516 1696.19 394.809C1716.85 420.632 1745.72 433.543 1782.81 433.543Z" stroke="black" stroke-width="60" mask="url(#path-1-outside-1_101_6)"/>
<path d="M2112.86 534.253V37.7469H2220.61L2379.07 322.27L2537.53 37.7469H2642.47V534.253H2525.56V264.52L2412.17 461.01H2341.75L2229.77 267.337V534.253H2112.86Z" stroke="black" stroke-width="60" mask="url(#path-1-outside-1_101_6)"/>
<path d="M2973.32 542C2923.09 542 2878.95 531.436 2840.92 510.308C2803.36 488.711 2774.02 458.662 2752.89 420.162C2731.76 381.663 2721.2 336.824 2721.2 285.648C2721.2 234.002 2731.53 189.164 2752.18 151.133C2773.31 112.634 2802.89 82.8198 2840.92 61.6919C2878.95 40.564 2923.09 30 2973.32 30C3023.56 30 3067.46 40.564 3105.02 61.6919C3143.05 82.8198 3172.63 112.634 3193.76 151.133C3214.89 189.164 3225.45 234.002 3225.45 285.648C3225.45 336.824 3214.89 381.663 3193.76 420.162C3172.63 458.662 3143.05 488.711 3105.02 510.308C3067.46 531.436 3023.56 542 2973.32 542ZM2973.32 433.543C3009.94 433.543 3038.58 420.632 3059.24 394.809C3080.37 368.516 3090.94 332.129 3090.94 285.648C3090.94 239.166 3080.61 203.014 3059.95 177.191C3039.29 151.368 3010.41 138.457 2973.32 138.457C2936.23 138.457 2907.36 151.368 2886.7 177.191C2866.04 203.014 2855.71 239.166 2855.71 285.648C2855.71 332.129 2866.04 368.516 2886.7 394.809C2907.36 420.632 2936.23 433.543 2973.32 433.543Z" stroke="black" stroke-width="60" mask="url(#path-1-outside-1_101_6)"/>
<path d="M3503.47 534.253V37.7469H3854.2V137.752H3627.42V232.124H3838V332.129H3627.42V434.248H3854.2V534.253H3503.47Z" stroke="black" stroke-width="60" mask="url(#path-1-outside-1_101_6)"/>
<path d="M4113.71 542C4074.74 542 4037.42 537.305 4001.74 527.915C3966.05 518.055 3936.71 505.143 3913.7 489.18L3949.62 388.47C3971.22 403.025 3996.57 414.528 4025.68 422.979C4054.79 431.431 4084.13 435.656 4113.71 435.656C4144.7 435.656 4166.3 431.665 4178.51 423.684C4191.18 415.232 4197.52 404.903 4197.52 392.696C4197.52 381.897 4193.06 373.211 4184.14 366.638C4175.69 360.065 4160.43 354.431 4138.36 349.736L4055.96 332.129C3966.76 312.879 3922.15 266.163 3922.15 191.981C3922.15 159.585 3930.84 131.179 3948.21 106.765C3966.05 82.3503 3990.7 63.5699 4022.16 50.4236C4053.62 36.8079 4090.24 30 4132.02 30C4166.3 30 4198.69 34.9298 4229.21 44.7895C4260.2 54.1797 4285.32 67.0912 4304.57 83.524L4268.65 177.895C4250.81 164.749 4230.15 154.655 4206.68 147.612C4183.2 140.1 4157.85 136.344 4130.62 136.344C4104.32 136.344 4084.13 141.039 4070.05 150.429C4055.96 159.35 4048.92 171.088 4048.92 185.642C4048.92 195.972 4053.15 204.423 4061.6 210.996C4070.05 217.569 4085.07 223.203 4106.67 227.898L4188.37 245.505C4278.98 264.755 4324.29 310.297 4324.29 382.132C4324.29 414.528 4315.6 442.699 4298.23 466.644C4280.86 490.589 4256.44 509.134 4224.99 522.281C4193.53 535.427 4156.44 542 4113.71 542Z" stroke="black" stroke-width="60" mask="url(#path-1-outside-1_101_6)"/>
<path d="M4494.52 534.253V143.387H4336.77V37.7469H4781.86V143.387H4624.11V534.253H4494.52Z" stroke="black" stroke-width="60" mask="url(#path-1-outside-1_101_6)"/>
<path d="M4830.85 534.253V37.7469H4960.43V534.253H4830.85Z" stroke="black" stroke-width="60" mask="url(#path-1-outside-1_101_6)"/>
<path d="M5051.65 534.253V37.7469H5159.4L5317.86 322.27L5476.32 37.7469H5581.26V534.253H5464.35V264.52L5350.96 461.01H5280.54L5168.56 267.337V534.253H5051.65Z" stroke="black" stroke-width="60" mask="url(#path-1-outside-1_101_6)"/>
<path d="M5612.8 534.253L5845.21 37.7469H5947.33L6179.73 534.253H6050.15L6007.19 433.543H5785.34L5742.39 534.253H5612.8ZM5895.21 172.966L5827.6 334.242H5964.23L5896.62 172.966H5895.21Z" stroke="black" stroke-width="60" mask="url(#path-1-outside-1_101_6)"/>
<path d="M6271 534.253V143.387H6113.25V37.7469H6558.34V143.387H6400.59V534.253H6271Z" stroke="black" stroke-width="60" mask="url(#path-1-outside-1_101_6)"/>
<path d="M6607.33 534.253V37.7469H6736.91V534.253H6607.33Z" stroke="black" stroke-width="60" mask="url(#path-1-outside-1_101_6)"/>
<path d="M7066.17 542C7015.93 542 6971.8 531.436 6933.77 510.308C6896.21 488.711 6866.86 458.662 6845.74 420.162C6824.61 381.663 6814.04 336.824 6814.04 285.648C6814.04 234.002 6824.37 189.164 6845.03 151.133C6866.16 112.634 6895.74 82.8198 6933.77 61.6919C6971.8 40.564 7015.93 30 7066.17 30C7116.41 30 7160.31 40.564 7197.87 61.6919C7235.9 82.8198 7265.48 112.634 7286.6 151.133C7307.73 189.164 7318.3 234.002 7318.3 285.648C7318.3 336.824 7307.73 381.663 7286.6 420.162C7265.48 458.662 7235.9 488.711 7197.87 510.308C7160.31 531.436 7116.41 542 7066.17 542ZM7066.17 433.543C7102.79 433.543 7131.43 420.632 7152.09 394.809C7173.22 368.516 7183.78 332.129 7183.78 285.648C7183.78 239.166 7173.45 203.014 7152.8 177.191C7132.14 151.368 7103.26 138.457 7066.17 138.457C7029.08 138.457 7000.2 151.368 6979.55 177.191C6958.89 203.014 6948.56 239.166 6948.56 285.648C6948.56 332.129 6958.89 368.516 6979.55 394.809C7000.2 420.632 7029.08 433.543 7066.17 433.543Z" stroke="black" stroke-width="60" mask="url(#path-1-outside-1_101_6)"/>
<path d="M7394.81 534.253V37.7469H7489.88L7718.06 322.27V37.7469H7837.79V534.253H7743.42L7515.24 249.73V534.253H7394.81Z" stroke="black" stroke-width="60" mask="url(#path-1-outside-1_101_6)"/>
</svg>
