<svg width="190" height="190" viewBox="0 0 190 190" fill="none" xmlns="http://www.w3.org/2000/svg">
<circle cx="95" cy="95" r="95" fill="#E0E7FF"/>
<path d="M109.583 99.1667C105.716 99.1667 102.006 100.703 99.2713 103.438C96.5364 106.173 95 109.882 95 113.75M95 113.75V117.917M95 113.75C95 109.882 93.4635 106.173 90.7286 103.438C87.9937 100.703 84.2844 99.1667 80.4166 99.1667M95 117.917C95 121.784 96.5364 125.494 99.2713 128.229C102.006 130.964 105.716 132.5 109.583 132.5C113.451 132.5 117.16 130.964 119.895 128.229C122.63 125.494 124.167 121.784 124.167 117.917V110.417M95 117.917C95 121.784 93.4635 125.494 90.7286 128.229C87.9937 130.964 84.2844 132.5 80.4166 132.5C76.5489 132.5 72.8396 130.964 70.1047 128.229C67.3698 125.494 65.8333 121.784 65.8333 117.917V110.417" stroke="#423BCA" stroke-width="8" stroke-linecap="round" stroke-linejoin="round"/>
<path d="M117.917 111.667C121.784 111.667 125.494 110.13 128.229 107.395C130.964 104.66 132.5 100.951 132.5 97.0833C132.5 93.2156 130.964 89.5063 128.229 86.7714C125.494 84.0365 121.784 82.5 117.917 82.5H115.833" stroke="#423BCA" stroke-width="8" stroke-linecap="round" stroke-linejoin="round"/>
<path d="M124.167 83.75V72.0833C124.167 68.2156 122.63 64.5063 119.895 61.7714C117.16 59.0365 113.451 57.5 109.583 57.5C105.716 57.5 102.006 59.0365 99.2714 61.7714C96.5365 64.5063 95 68.2156 95 72.0833M72.0833 111.667C68.2156 111.667 64.5063 110.13 61.7714 107.395C59.0365 104.66 57.5 100.951 57.5 97.0833C57.5 93.2156 59.0365 89.5063 61.7714 86.7714C64.5063 84.0365 68.2156 82.5 72.0833 82.5H74.1667" stroke="#423BCA" stroke-width="8" stroke-linecap="round" stroke-linejoin="round"/>
<path d="M65.8333 83.75V72.0833C65.8333 68.2156 67.3698 64.5063 70.1047 61.7714C72.8396 59.0365 76.5489 57.5 80.4166 57.5C84.2844 57.5 87.9937 59.0365 90.7286 61.7714C93.4635 64.5063 95 68.2156 95 72.0833V113.75" stroke="#423BCA" stroke-width="8" stroke-linecap="round" stroke-linejoin="round"/>
</svg>
