<svg width="33" height="33" viewBox="0 0 33 33" fill="none" xmlns="http://www.w3.org/2000/svg">
<path d="M13.75 24.75V22H15.8813L19.4906 17.875L15.8813 13.75H13.6125L11.4125 25.575C11.2292 26.6063 10.8052 27.4143 10.1406 27.9991C9.47604 28.584 8.62813 28.8759 7.59688 28.875C6.56563 28.875 5.72917 28.6 5.0875 28.05C4.44583 27.5 4.125 26.7667 4.125 25.85C4.125 25.1167 4.31979 24.5263 4.70937 24.079C5.09896 23.6317 5.59167 23.4085 6.1875 23.4094C6.76042 23.4094 7.24763 23.6042 7.64913 23.9938C8.05063 24.3833 8.25092 24.8531 8.25 25.4031C8.25 25.5177 8.24404 25.6208 8.23212 25.7125C8.22021 25.8042 8.20325 25.9073 8.18125 26.0219C8.29583 25.999 8.39346 25.9357 8.47413 25.8321C8.55479 25.7285 8.61758 25.5855 8.6625 25.4031L10.7937 13.75H6.875V11H11.3094L12.0312 7.08125C12.1917 6.21042 12.6216 5.5 13.321 4.95C14.0204 4.4 14.8509 4.125 15.8125 4.125C16.8208 4.125 17.6458 4.42292 18.2875 5.01875C18.9292 5.61458 19.25 6.35938 19.25 7.25313C19.25 7.94063 19.0552 8.50804 18.6656 8.95538C18.276 9.40271 17.7833 9.62592 17.1875 9.625C16.6146 9.625 16.1274 9.43021 15.7259 9.04062C15.3244 8.65104 15.1241 8.16979 15.125 7.59688C15.125 7.48229 15.131 7.37917 15.1429 7.2875C15.1548 7.19583 15.1718 7.09271 15.1938 6.97812C15.0563 7.02396 14.9531 7.09271 14.8844 7.18437C14.8156 7.27604 14.7583 7.41354 14.7125 7.59688L14.1281 11H20.625V13.75H19.525L21.3125 15.7781L23.1 13.75H22V11H28.875V13.75H26.7438L23.1344 17.875L26.7438 22H28.875V24.75H22V22H23.1L21.3125 19.9375L19.525 22H20.625V24.75H13.75Z" fill="#BB28D3"/>
</svg>
