<svg width="61" height="47" viewBox="0 0 61 47" fill="none" xmlns="http://www.w3.org/2000/svg">
<path d="M16.1925 46.7039C13.2059 46.7039 10.2405 46.2772 7.29652 45.4239C4.39519 44.5279 2.09119 43.3546 0.384521 41.9039L3.96852 33.1359C7.76586 35.7386 11.7552 37.0399 15.9365 37.0399C18.1125 37.0399 19.7979 36.5706 20.9925 35.6319C22.1872 34.6932 22.7845 33.3706 22.7845 31.6639C22.7845 29.9999 22.2085 28.6772 21.0565 27.6959C19.9045 26.6719 18.3685 26.1599 16.4485 26.1599C13.6752 26.1599 11.2005 27.1412 9.02452 29.1039H1.66452V0.879883H31.1045V10.4159H12.7365V18.4159C14.6992 17.3492 16.9605 16.8159 19.5205 16.8159C22.3792 16.8159 24.8965 17.4345 27.0725 18.6719C29.2485 19.8665 30.9339 21.5519 32.1285 23.7279C33.3659 25.9039 33.9845 28.4425 33.9845 31.3439C33.9845 34.4159 33.2592 37.1252 31.8085 39.4719C30.3579 41.7759 28.3099 43.5679 25.6645 44.8479C23.0192 46.0852 19.8619 46.7039 16.1925 46.7039Z" fill="black"/>
<path d="M47 31.9999H61V45.9999H47V31.9999Z" fill="#423BCA"/>
</svg>
