<svg width="63" height="47" viewBox="0 0 63 47" fill="none" xmlns="http://www.w3.org/2000/svg">
<path d="M17.1685 46.704C13.9685 46.704 10.8965 46.2774 7.95248 45.424C5.00848 44.528 2.66181 43.3547 0.912476 41.904L4.49648 33.136C8.20848 35.7387 12.2831 37.04 16.7205 37.04C21.3285 37.04 23.6325 35.4614 23.6325 32.304C23.6325 29.4027 21.5845 27.952 17.4885 27.952H9.61648V18.608H16.3365C18.1711 18.608 19.6005 18.224 20.6245 17.456C21.6911 16.688 22.2245 15.5787 22.2245 14.128C22.2245 11.2694 20.2405 9.84003 16.2725 9.84003C12.2191 9.84003 8.54981 11.1414 5.26448 13.744L1.61648 5.16803C3.53648 3.58936 5.88314 2.37336 8.65648 1.52002C11.4725 0.624025 14.3951 0.176025 17.4245 0.176025C22.4591 0.176025 26.3845 1.28536 29.2005 3.50402C32.0165 5.68002 33.4245 8.70936 33.4245 12.592C33.4245 14.896 32.8485 16.9227 31.6965 18.672C30.5445 20.4214 28.9445 21.7014 26.8965 22.512C29.4138 23.2374 31.3551 24.56 32.7205 26.48C34.1285 28.4 34.8325 30.7254 34.8325 33.456C34.8325 37.552 33.2538 40.7947 30.0965 43.184C26.9818 45.5307 22.6725 46.704 17.1685 46.704Z" fill="black"/>
<path d="M49 32H63V46H49V32Z" fill="#423BCA"/>
</svg>
