<svg width="62" height="46" viewBox="0 0 62 46" fill="none" xmlns="http://www.w3.org/2000/svg">
<path d="M2.72849 46V37.36L16.2965 23.152C17.9605 21.36 19.1338 19.824 19.8165 18.544C20.5418 17.264 20.9045 15.984 20.9045 14.704C20.9045 11.4614 18.8352 9.84003 14.6965 9.84003C12.9898 9.84003 11.2405 10.16 9.44849 10.8C7.69916 11.44 5.94982 12.4214 4.20049 13.744L0.55249 5.16803C2.51516 3.63203 4.88316 2.41602 7.65649 1.52002C10.4725 0.624025 13.3738 0.176025 16.3605 0.176025C21.5658 0.176025 25.5338 1.30669 28.2645 3.56802C31.0378 5.82936 32.4245 9.09336 32.4245 13.36C32.4245 16.0907 31.8058 18.7147 30.5685 21.232C29.3312 23.7067 27.2618 26.352 24.3605 29.168L17.0645 36.464H34.0885V46H2.72849Z" fill="black"/>
<path d="M48 32H62V46H48V32Z" fill="#423BCA"/>
</svg>
