<svg width="33" height="33" viewBox="0 0 33 33" fill="none" xmlns="http://www.w3.org/2000/svg">
<path d="M16.6289 21.6885C16.6289 21.8303 16.7385 21.9463 16.8706 21.9463H22.8325C22.9646 21.9463 23.0742 21.8303 23.0742 21.6885V20.1416C23.0742 19.9998 22.9646 19.8838 22.8325 19.8838H16.8706C16.7385 19.8838 16.6289 19.9998 16.6289 20.1416V21.6885ZM10.3479 21.8851L16.5354 16.6966C16.6579 16.5935 16.6579 16.4033 16.5354 16.3002L10.3479 11.1149C10.3106 11.0832 10.2649 11.0628 10.2163 11.0562C10.1677 11.0497 10.1183 11.0572 10.0738 11.0779C10.0294 11.0986 9.9918 11.1316 9.96556 11.173C9.93932 11.2144 9.92551 11.2625 9.92578 11.3115V13.3321C9.92578 13.4095 9.95801 13.4804 10.0192 13.5287L13.5577 16.5L10.0192 19.4713C9.99043 19.4954 9.96717 19.5254 9.95104 19.5594C9.93491 19.5933 9.9263 19.6303 9.92578 19.6679V21.6885C9.92578 21.9076 10.1804 22.0269 10.3479 21.8851ZM28.3594 3.60938H4.64062C4.07021 3.60938 3.60938 4.07021 3.60938 4.64062V28.3594C3.60938 28.9298 4.07021 29.3906 4.64062 29.3906H28.3594C28.9298 29.3906 29.3906 28.9298 29.3906 28.3594V4.64062C29.3906 4.07021 28.9298 3.60938 28.3594 3.60938ZM27.0703 27.0703H5.92969V5.92969H27.0703V27.0703Z" fill="#423BCA"/>
</svg>
