<svg width="33" height="33" viewBox="0 0 33 33" fill="none" xmlns="http://www.w3.org/2000/svg">
<path d="M12.375 9.625H17.875C18.6043 9.625 19.3038 9.91473 19.8195 10.4305C20.3353 10.9462 20.625 11.6457 20.625 12.375V15.125C20.625 15.8543 20.3353 16.5538 19.8195 17.0695C19.3038 17.5853 18.6043 17.875 17.875 17.875H15.125V23.375H12.375V9.625ZM15.125 12.375V15.125H17.875V12.375H15.125ZM6.875 4.125H26.125C26.8543 4.125 27.5538 4.41473 28.0695 4.93046C28.5853 5.44618 28.875 6.14565 28.875 6.875V26.125C28.875 26.8543 28.5853 27.5538 28.0695 28.0695C27.5538 28.5853 26.8543 28.875 26.125 28.875H6.875C6.14565 28.875 5.44618 28.5853 4.93046 28.0695C4.41473 27.5538 4.125 26.8543 4.125 26.125V6.875C4.125 6.14565 4.41473 5.44618 4.93046 4.93046C5.44618 4.41473 6.14565 4.125 6.875 4.125ZM6.875 6.875V26.125H26.125V6.875H6.875Z" fill="#64A20C"/>
</svg>
