<svg width="420" height="60" viewBox="0 0 420 60" fill="none" xmlns="http://www.w3.org/2000/svg">
<path d="M30.8666 60C24.4292 60 18.8996 58.762 14.2779 56.2861C9.65612 53.8102 6.10729 50.3164 3.63136 45.8047C1.21045 41.293 0 36.011 0 29.9587C0 23.9065 1.21045 18.652 3.63136 14.1953C6.10729 9.68363 9.65612 6.18982 14.2779 3.7139C18.8996 1.23797 24.4292 0 30.8666 0C34.718 0 38.4319 0.605228 42.0082 1.81568C45.5846 2.97111 48.4732 4.51169 50.674 6.43742L46.1348 18.4044C43.7139 16.6437 41.293 15.3508 38.8721 14.5254C36.4512 13.6451 33.9752 13.205 31.4443 13.205C26.3274 13.205 22.4759 14.663 19.89 17.5791C17.304 20.4402 16.011 24.5667 16.011 29.9587C16.011 35.4058 17.304 39.5873 19.89 42.5034C22.4759 45.3645 26.3274 46.7951 31.4443 46.7951C33.9752 46.7951 36.4512 46.3824 38.8721 45.5571C41.293 44.6768 43.7139 43.3563 46.1348 41.5956L50.674 53.5626C48.4732 55.4883 45.5846 57.0564 42.0082 58.2668C38.4319 59.4223 34.718 60 30.8666 60Z" fill="white"/>
<path d="M84.1906 60C78.3034 60 73.1314 58.762 68.6748 56.2861C64.2731 53.7552 60.8343 50.2338 58.3584 45.7221C55.8825 41.2105 54.6445 35.956 54.6445 29.9587C54.6445 23.9065 55.855 18.652 58.2759 14.1953C60.7518 9.68363 64.2181 6.18982 68.6748 3.7139C73.1314 1.23797 78.3034 0 84.1906 0C90.0778 0 95.2222 1.23797 99.6239 3.7139C104.081 6.18982 107.547 9.68363 110.023 14.1953C112.499 18.652 113.737 23.9065 113.737 29.9587C113.737 35.956 112.499 41.2105 110.023 45.7221C107.547 50.2338 104.081 53.7552 99.6239 56.2861C95.2222 58.762 90.0778 60 84.1906 60ZM84.1906 47.2902C88.4822 47.2902 91.8384 45.7772 94.2594 42.751C96.7353 39.6699 97.9733 35.4058 97.9733 29.9587C97.9733 24.5117 96.7628 20.2751 94.3419 17.249C91.921 14.2228 88.5372 12.7098 84.1906 12.7098C79.844 12.7098 76.4602 14.2228 74.0393 17.249C71.6184 20.2751 70.4079 24.5117 70.4079 29.9587C70.4079 35.4058 71.6184 39.6699 74.0393 42.751C76.4602 45.7772 79.844 47.2902 84.1906 47.2902Z" fill="white"/>
<path d="M152.084 60C145.646 60 140.117 58.762 135.495 56.2861C130.873 53.8102 127.325 50.3164 124.849 45.8047C122.428 41.293 121.217 36.011 121.217 29.9587C121.217 23.9065 122.428 18.652 124.849 14.1953C127.325 9.68363 130.873 6.18982 135.495 3.7139C140.117 1.23797 145.646 0 152.084 0C155.935 0 159.649 0.605228 163.226 1.81568C166.802 2.97111 169.69 4.51169 171.891 6.43742L167.352 18.4044C164.931 16.6437 162.51 15.3508 160.089 14.5254C157.668 13.6451 155.193 13.205 152.662 13.205C147.545 13.205 143.693 14.663 141.107 17.5791C138.521 20.4402 137.228 24.5667 137.228 29.9587C137.228 35.4058 138.521 39.5873 141.107 42.5034C143.693 45.3645 147.545 46.7951 152.662 46.7951C155.193 46.7951 157.668 46.3824 160.089 45.5571C162.51 44.6768 164.931 43.3563 167.352 41.5956L171.891 53.5626C169.69 55.4883 166.802 57.0564 163.226 58.2668C159.649 59.4223 155.935 60 152.084 60Z" fill="white"/>
<path d="M205.408 60C199.521 60 194.349 58.762 189.892 56.2861C185.49 53.7552 182.052 50.2338 179.576 45.7221C177.1 41.2105 175.862 35.956 175.862 29.9587C175.862 23.9065 177.072 18.652 179.493 14.1953C181.969 9.68363 185.435 6.18982 189.892 3.7139C194.349 1.23797 199.521 0 205.408 0C211.295 0 216.44 1.23797 220.841 3.7139C225.298 6.18982 228.764 9.68363 231.24 14.1953C233.716 18.652 234.954 23.9065 234.954 29.9587C234.954 35.956 233.716 41.2105 231.24 45.7221C228.764 50.2338 225.298 53.7552 220.841 56.2861C216.44 58.762 211.295 60 205.408 60ZM205.408 47.2902C209.7 47.2902 213.056 45.7772 215.477 42.751C217.953 39.6699 219.191 35.4058 219.191 29.9587C219.191 24.5117 217.98 20.2751 215.559 17.249C213.138 14.2228 209.755 12.7098 205.408 12.7098C201.061 12.7098 197.677 14.2228 195.257 17.249C192.836 20.2751 191.625 24.5117 191.625 29.9587C191.625 35.4058 192.836 39.6699 195.257 42.751C197.677 45.7772 201.061 47.2902 205.408 47.2902Z" fill="white"/>
<path d="M244.085 59.0922V0.90784H256.712L275.282 34.2503L293.851 0.90784H306.149V59.0922H292.448V27.4828L279.161 50.5089H270.908L257.785 27.8129V59.0922H244.085Z" fill="white"/>
<path d="M344.921 60C339.033 60 333.862 58.762 329.405 56.2861C325.003 53.7552 321.564 50.2338 319.088 45.7221C316.613 41.2105 315.375 35.956 315.375 29.9587C315.375 23.9065 316.585 18.652 319.006 14.1953C321.482 9.68363 324.948 6.18982 329.405 3.7139C333.862 1.23797 339.033 0 344.921 0C350.808 0 355.952 1.23797 360.354 3.7139C364.811 6.18982 368.277 9.68363 370.753 14.1953C373.229 18.652 374.467 23.9065 374.467 29.9587C374.467 35.956 373.229 41.2105 370.753 45.7221C368.277 50.2338 364.811 53.7552 360.354 56.2861C355.952 58.762 350.808 60 344.921 60ZM344.921 47.2902C349.212 47.2902 352.569 45.7772 354.989 42.751C357.465 39.6699 358.703 35.4058 358.703 29.9587C358.703 24.5117 357.493 20.2751 355.072 17.249C352.651 14.2228 349.267 12.7098 344.921 12.7098C340.574 12.7098 337.19 14.2228 334.769 17.249C332.348 20.2751 331.138 24.5117 331.138 29.9587C331.138 35.4058 332.348 39.6699 334.769 42.751C337.19 45.7772 340.574 47.2902 344.921 47.2902Z" fill="white"/>
<path d="M390.289 30.2064H419.175V59.0922H390.289V30.2064Z" fill="#FBBF24"/>
</svg>
