<svg width="512" height="512" viewBox="0 0 512 512" fill="none" xmlns="http://www.w3.org/2000/svg">
<path d="M153.6 238.933H136.533V273.067H153.6V238.933ZM358.4 273.067H375.467V238.933H358.4V273.067ZM290.133 341.333H273.067V375.467H290.133V341.333ZM358.4 375.467H375.467V341.333H358.4V375.467ZM153.6 136.533H136.533V170.667H153.6V136.533ZM221.867 170.667H238.933V136.533H221.867V170.667ZM358.4 17.0667L370.483 4.98347L365.466 0H358.4V17.0667ZM460.8 119.467H477.867V112.401L472.883 107.383L460.8 119.467ZM153.6 273.067H358.4V238.933H153.6V273.067ZM290.133 375.467H358.4V341.333H290.133V375.467ZM153.6 170.667H221.867V136.533H153.6V170.667ZM426.667 477.867H85.3333V512H426.667V477.867ZM68.2666 460.8V51.2H34.1333V460.8H68.2666ZM85.3333 34.1333H358.4V0H85.3333V34.1333ZM443.733 119.467V460.8H477.867V119.467H443.733ZM346.317 29.1499L448.717 131.55L472.883 107.383L370.483 4.98347L346.317 29.1499ZM85.3333 477.867C80.8069 477.867 76.466 476.069 73.2654 472.868C70.0647 469.667 68.2666 465.326 68.2666 460.8H34.1333C34.1333 474.379 39.5276 487.402 49.1294 497.004C58.7313 506.606 71.7542 512 85.3333 512V477.867ZM426.667 512C440.246 512 453.269 506.606 462.871 497.004C472.472 487.402 477.867 474.379 477.867 460.8H443.733C443.733 465.326 441.935 469.667 438.735 472.868C435.534 476.069 431.193 477.867 426.667 477.867V512ZM68.2666 51.2C68.2666 46.6736 70.0647 42.3327 73.2654 39.132C76.466 35.9314 80.8069 34.1333 85.3333 34.1333V0C71.7542 0 58.7313 5.39427 49.1294 14.9961C39.5276 24.598 34.1333 37.6209 34.1333 51.2H68.2666Z" fill="#D7D7D7"/>
</svg>
